<svg width="23" height="22" viewBox="0 0 23 22" fill="none" xmlns="http://www.w3.org/2000/svg">
<path d="M6.03239 13.1308L4.66571 19.0488C4.62339 19.228 4.6361 19.4158 4.70217 19.5877C4.76824 19.7596 4.8846 19.9075 5.03606 20.0122C5.18752 20.1169 5.36704 20.1735 5.55117 20.1746C5.73529 20.1757 5.91547 20.1212 6.06816 20.0183L11.0625 16.6888L16.0568 20.0183C16.2131 20.1221 16.3973 20.1755 16.5848 20.1714C16.7723 20.1673 16.9541 20.1058 17.1056 19.9953C17.2571 19.8849 17.3712 19.7306 17.4325 19.5534C17.4937 19.3761 17.4993 19.1844 17.4483 19.0039L15.7707 13.1336L19.9312 9.38944C20.0645 9.26946 20.1597 9.11304 20.205 8.93955C20.2503 8.76605 20.2437 8.58308 20.1861 8.41327C20.1286 8.24345 20.0225 8.09424 19.881 7.98408C19.7395 7.87392 19.5688 7.80764 19.3901 7.79345L14.1609 7.37703L11.8981 2.36801C11.826 2.20672 11.7087 2.06976 11.5604 1.97366C11.4121 1.87755 11.2392 1.82642 11.0625 1.82642C10.8858 1.82642 10.7129 1.87755 10.5646 1.97366C10.4163 2.06976 10.2991 2.20672 10.2269 2.36801L7.96409 7.37703L2.73493 7.79254C2.55924 7.80645 2.39128 7.87069 2.25114 7.97757C2.11101 8.08445 2.00463 8.22943 1.94473 8.39518C1.88483 8.56094 1.87396 8.74044 1.91341 8.91221C1.95286 9.08398 2.04095 9.24074 2.16717 9.36376L6.03239 13.1308ZM8.64926 9.16288C8.81298 9.14998 8.97022 9.09328 9.10449 8.99871C9.23875 8.90414 9.34511 8.77519 9.4124 8.62538L11.0625 4.97387L12.7126 8.62538C12.7799 8.77519 12.8863 8.90414 13.0205 8.99871C13.1548 9.09328 13.312 9.14998 13.4757 9.16288L17.119 9.45181L14.1187 12.1521C13.8582 12.387 13.7546 12.7484 13.85 13.0859L14.9993 17.108L11.5725 14.8231C11.4221 14.7222 11.245 14.6683 11.0639 14.6683C10.8827 14.6683 10.7057 14.7222 10.5553 14.8231L6.97439 17.2107L7.93749 13.0409C7.9728 12.8876 7.96806 12.7277 7.92372 12.5767C7.87939 12.4257 7.79695 12.2887 7.68433 12.1787L4.89777 9.4619L8.64926 9.16288Z" fill="#F3CD03"/>
</svg>
