<svg width="23" height="22" viewBox="0 0 23 22" fill="none" xmlns="http://www.w3.org/2000/svg">
<path d="M20.1716 8.41256C20.1139 8.24274 20.0078 8.09353 19.8663 7.98335C19.7248 7.87316 19.5542 7.80681 19.3754 7.79251L14.1463 7.377L11.8835 2.36798C11.8114 2.20665 11.6942 2.06963 11.546 1.97344C11.3977 1.87726 11.2248 1.82602 11.0482 1.82593C10.8715 1.82583 10.6985 1.87687 10.5502 1.9729C10.4019 2.06892 10.2845 2.20582 10.2123 2.36707L7.94944 7.377L2.72029 7.79251C2.54459 7.80642 2.37663 7.87066 2.23649 7.97754C2.09636 8.08442 1.98998 8.2294 1.93008 8.39516C1.87019 8.56091 1.85931 8.74041 1.89876 8.91218C1.93821 9.08395 2.02631 9.24072 2.15252 9.36373L6.01682 13.1308L4.65015 19.0488C4.60865 19.2279 4.62195 19.4154 4.68832 19.5869C4.75469 19.7584 4.87107 19.9059 5.02236 20.0105C5.17365 20.115 5.35286 20.1716 5.53673 20.173C5.7206 20.1744 5.90065 20.1205 6.05351 20.0183L11.0479 16.6888L16.0422 20.0183C16.1984 20.1221 16.3827 20.1755 16.5702 20.1713C16.7577 20.1672 16.9394 20.1058 17.091 19.9953C17.2425 19.8848 17.3566 19.7306 17.4178 19.5533C17.4791 19.3761 17.4846 19.1843 17.4336 19.0039L15.756 13.1336L19.9166 9.38941C20.189 9.14359 20.289 8.76019 20.1716 8.41256Z" fill="#F3CD03"/>
</svg>
